<svg width="49" height="36" viewBox="0 0 49 36" fill="none" xmlns="http://www.w3.org/2000/svg">
<path d="M0 2.99017C0 1.33904 1.56734 0 3.5 0H45.5C47.4359 0 49 1.33904 49 2.99017C49 4.64411 47.4359 5.98034 45.5 5.98034H3.5C1.56734 5.98034 0 4.64411 0 2.99017ZM0 17.941C0 16.2871 1.56734 14.9509 3.5 14.9509H45.5C47.4359 14.9509 49 16.2871 49 17.941C49 19.595 47.4359 20.9312 45.5 20.9312H3.5C1.56734 20.9312 0 19.595 0 17.941ZM45.5 35.882H3.5C1.56734 35.882 0 34.5458 0 32.8919C0 31.2379 1.56734 29.9017 3.5 29.9017H45.5C47.4359 29.9017 49 31.2379 49 32.8919C49 34.5458 47.4359 35.882 45.5 35.882Z" fill="#66CAD4"/>
</svg>
