<svg width="53" height="53" viewBox="0 0 53 53" fill="none" xmlns="http://www.w3.org/2000/svg">
<circle cx="26.5" cy="26.5" r="26.5" fill="white"/>
<path d="M26.1801 18.3883C22.0533 18.3883 18.7246 21.8657 18.7246 26.1768C18.7246 30.488 22.0533 33.9654 26.1801 33.9654C30.3069 33.9654 33.6355 30.488 33.6355 26.1768C33.6355 21.8657 30.3069 18.3883 26.1801 18.3883ZM26.1801 31.2404C23.5132 31.2404 21.3331 28.9696 21.3331 26.1768C21.3331 23.3841 23.5068 21.1132 26.1801 21.1132C28.8534 21.1132 31.0271 23.3841 31.0271 26.1768C31.0271 28.9696 28.8469 31.2404 26.1801 31.2404V31.2404ZM35.6795 18.0697C35.6795 19.0797 34.9008 19.8863 33.9405 19.8863C32.9737 19.8863 32.2015 19.0729 32.2015 18.0697C32.2015 17.0665 32.9802 16.253 33.9405 16.253C34.9008 16.253 35.6795 17.0665 35.6795 18.0697ZM40.6173 19.9134C40.507 17.4799 39.9749 15.3244 38.2684 13.5484C36.5684 11.7724 34.505 11.2166 32.1756 11.0946C29.7748 10.9522 22.5789 10.9522 20.1781 11.0946C17.8551 11.2098 15.7918 11.7656 14.0852 13.5416C12.3787 15.3176 11.8531 17.4732 11.7364 19.9067C11.6001 22.4147 11.6001 29.9321 11.7364 32.4402C11.8467 34.8737 12.3787 37.0293 14.0852 38.8052C15.7918 40.5812 17.8487 41.1371 20.1781 41.2591C22.5789 41.4014 29.7748 41.4014 32.1756 41.2591C34.505 41.1438 36.5684 40.588 38.2684 38.8052C39.9685 37.0293 40.5005 34.8737 40.6173 32.4402C40.7536 29.9321 40.7536 22.4215 40.6173 19.9134V19.9134ZM37.5158 35.1313C37.0096 36.4599 36.0299 37.4834 34.7516 38.0189C32.8374 38.812 28.2954 38.629 26.1801 38.629C24.0648 38.629 19.5162 38.8052 17.6086 38.0189C16.3368 37.4902 15.357 36.4666 14.8444 35.1313C14.0852 33.1316 14.2604 28.3866 14.2604 26.1768C14.2604 23.967 14.0917 19.2153 14.8444 17.2224C15.3505 15.8938 16.3303 14.8702 17.6086 14.3347C19.5227 13.5416 24.0648 13.7246 26.1801 13.7246C28.2954 13.7246 32.8439 13.5484 34.7516 14.3347C36.0234 14.8634 37.0031 15.887 37.5158 17.2224C38.2749 19.222 38.0997 23.967 38.0997 26.1768C38.0997 28.3866 38.2749 33.1384 37.5158 35.1313Z" fill="#323232"/>
</svg>
