<svg width="131" height="32" viewBox="0 0 131 32" fill="none" xmlns="http://www.w3.org/2000/svg">
<path d="M0 32H29.5019V4.49061e-08H0V32ZM23.8235 12.921H17.5896V6.15922H23.8235V12.921ZM5.67725 6.15922H11.9147V19.079H23.8235V25.8408H5.67725V6.15922ZM48.7133 4.49061e-08C45.7957 4.49061e-08 42.9438 0.938392 40.5181 2.69649C38.0922 4.4546 36.2016 6.95345 35.0851 9.87708C33.9686 12.8007 33.6766 16.0177 34.2457 19.1214C34.8149 22.2251 36.2197 25.076 38.2827 27.3136C40.3456 29.5514 42.974 31.0752 45.8354 31.6926C48.6969 32.3099 51.6628 31.9931 54.3582 30.7821C57.0536 29.5711 59.3573 27.5204 60.9782 24.8891C62.599 22.2579 63.4642 19.1644 63.4642 16C63.4596 11.758 61.904 7.69127 59.1386 4.69177C56.3733 1.69226 52.6241 0.00495287 48.7133 4.49061e-08ZM48.7133 25.8408C46.9189 25.8408 45.1647 25.2636 43.6727 24.1823C42.1809 23.101 41.0179 21.5641 40.3313 19.7659C39.6446 17.9678 39.465 15.9891 39.8149 14.0801C40.1651 12.1712 41.0292 10.4178 42.2979 9.04151C43.5668 7.66526 45.1834 6.72802 46.9433 6.34831C48.7031 5.9686 50.5273 6.16348 52.1852 6.9083C53.8429 7.65312 55.2599 8.91445 56.2568 10.5328C57.2537 12.151 57.7858 14.0537 57.7858 16C57.7821 18.6088 56.8251 21.1095 55.1244 22.9542C53.4238 24.7988 51.1183 25.8368 48.7133 25.8408ZM116.25 4.49061e-08C113.332 -0.000236992 110.481 0.93793 108.055 2.69588C105.629 4.45384 103.738 6.9526 102.621 9.87621C101.505 12.7997 101.212 16.017 101.781 19.1206C102.35 22.2245 103.755 25.0755 105.818 27.3133C107.881 29.551 110.509 31.075 113.371 31.6925C116.232 32.3099 119.198 31.9931 121.894 30.7822C124.589 29.5712 126.893 27.5205 128.513 24.8892C130.135 22.258 131 19.1646 131 16C130.995 11.7583 129.44 7.69167 126.675 4.69221C123.91 1.69273 120.161 0.00528971 116.25 4.49061e-08ZM116.25 25.8408C114.456 25.841 112.702 25.264 111.209 24.1829C109.717 23.1017 108.554 21.5649 107.867 19.7668C107.181 17.9686 107.001 15.9899 107.351 14.0809C107.701 12.172 108.565 10.4184 109.833 9.04196C111.102 7.66557 112.719 6.72821 114.479 6.3484C116.239 5.96859 118.063 6.1634 119.72 6.90819C121.379 7.65297 122.796 8.91428 123.793 10.5327C124.789 12.151 125.322 14.0537 125.322 16C125.318 18.6085 124.361 21.109 122.66 22.9537C120.96 24.7983 118.655 25.8365 116.25 25.8408ZM82.4811 4.49061e-08C79.5636 4.49061e-08 76.7117 0.938392 74.2859 2.69649C71.8601 4.4546 69.9695 6.95345 68.853 9.87708C67.7365 12.8007 67.4445 16.0177 68.0136 19.1214C68.5828 22.2251 69.9876 25.076 72.0506 27.3136C74.1135 29.5514 76.7419 31.0752 79.6033 31.6926C82.4647 32.3099 85.4306 31.9931 88.1261 30.7821C90.8215 29.5711 93.1252 27.5204 94.7461 24.8891C96.3669 22.2579 97.2321 19.1644 97.2321 16C97.2275 11.758 95.6719 7.69127 92.9065 4.69177C90.1412 1.69226 86.392 0.00495287 82.4811 4.49061e-08ZM82.4811 25.8408C80.8093 25.8416 79.1698 25.3415 77.7435 24.3955C76.3173 23.4494 75.1596 22.0945 74.3986 20.4799C73.6376 18.8653 73.3026 17.0539 73.4307 15.246C73.5588 13.4379 74.1449 11.7034 75.1245 10.2339C76.1041 8.76445 77.439 7.61713 78.9818 6.91862C80.5246 6.2201 82.2153 5.99756 83.8673 6.27554C85.5194 6.55353 87.0685 7.32124 88.3437 8.49393C89.6189 9.66662 90.5705 11.1987 91.0936 12.921H82.4811V19.079H91.0936C90.4945 21.0443 89.3402 22.7552 87.7943 23.9688C86.2484 25.1826 84.3895 25.8374 82.4811 25.8408Z" fill="#66CAD4"/>
</svg>
