<svg width="53" height="53" viewBox="0 0 53 53" fill="none" xmlns="http://www.w3.org/2000/svg">
<path d="M26.5 0C11.8644 0 0 11.8644 0 26.5C0 41.1356 11.8644 53 26.5 53C41.1356 53 53 41.1356 53 26.5C53 11.8644 41.1356 0 26.5 0ZM38.7832 18.0221C38.3844 22.2125 36.6588 32.3811 35.7806 37.0744C35.4091 39.0601 34.6776 39.7261 33.9696 39.7911C32.4309 39.9328 31.2621 38.7742 29.7716 37.7971C27.4393 36.2682 26.1216 35.3165 23.8576 33.8246C21.2412 32.1005 22.9374 31.1532 24.4284 29.6038C24.8186 29.1985 31.5991 23.0312 31.7303 22.4717C31.7467 22.4017 31.7624 22.1404 31.607 22.0032C31.4517 21.866 31.2234 21.9125 31.0583 21.9498C30.8245 22.0029 27.0985 24.4657 19.8804 29.338C18.8229 30.0641 17.865 30.418 17.0067 30.3995C16.0605 30.379 14.2404 29.8645 12.8873 29.4246C11.2278 28.8852 9.90876 28.6 10.0236 27.6838C10.0835 27.2066 10.7406 26.7186 11.9951 26.2199C19.7204 22.8541 24.8718 20.6351 27.4493 19.5629C34.8086 16.5018 36.3378 15.9701 37.3345 15.9524C37.5538 15.9487 38.044 16.003 38.3614 16.2606C38.5726 16.4442 38.7072 16.7003 38.7386 16.9783C38.7924 17.3235 38.8074 17.6736 38.7832 18.0221V18.0221Z" fill="white"/>
</svg>
