<svg width="55" height="53" viewBox="0 0 55 53" fill="none" xmlns="http://www.w3.org/2000/svg">
<ellipse cx="27.5" cy="26.5" rx="27.5" ry="26.5" fill="white"/>
<path d="M41.7522 14.2605C40.8575 13.4926 37.2364 11.0444 29.1631 11.0116C29.1631 11.0116 19.6456 10.4799 15.0101 14.4443C12.4317 16.8466 11.5229 20.3712 11.4243 24.736C11.3257 29.1008 11.2059 37.279 19.6667 39.4975H19.6738L19.6667 42.8843C19.6667 42.8843 19.6104 44.2561 20.5825 44.5318C21.752 44.8731 22.4424 43.8295 23.5625 42.7071C24.1754 42.0901 25.0208 41.1844 25.6618 40.4952C31.4527 40.9481 35.8979 39.911 36.4052 39.7601C37.5746 39.4056 44.1897 38.618 45.2605 30.4398C46.3736 21.999 44.7251 16.6694 41.7522 14.2605V14.2605ZM42.7314 29.8228C41.8226 36.6489 36.4615 37.0821 35.4752 37.3775C35.0526 37.5022 31.1427 38.408 26.2325 38.1126C26.2325 38.1126 22.5692 42.228 21.4279 43.2978C21.0545 43.6457 20.6459 43.6129 20.653 42.9237C20.653 42.4708 20.6812 37.2987 20.6812 37.2987C20.6741 37.2987 20.6741 37.2987 20.6812 37.2987C13.5096 35.4478 13.9322 28.4838 14.0097 24.841C14.0872 21.1983 14.8269 18.2118 17.0108 16.2034C20.9348 12.8888 29.0152 13.381 29.0152 13.381C35.8416 13.4073 39.1104 15.3238 39.8712 15.9671C42.3862 17.9755 43.6683 22.7801 42.7314 29.8228V29.8228ZM32.9391 24.5194C32.9673 25.0839 32.0585 25.1233 32.0303 24.5588C31.9528 23.1148 31.2272 22.4125 29.7337 22.3337C29.1279 22.3009 29.1842 21.4542 29.7831 21.487C31.7485 21.5855 32.8405 22.6357 32.9391 24.5194ZM34.3692 25.2611C34.4397 22.4781 32.5728 20.299 29.0293 20.0562C28.4304 20.0168 28.4938 19.1701 29.0927 19.2095C33.1786 19.4852 35.3555 22.104 35.278 25.2808C35.2709 25.8453 34.3551 25.819 34.3692 25.2611V25.2611ZM37.6803 26.1406C37.6873 26.7051 36.7715 26.7117 36.7715 26.1472C36.7292 20.7979 32.9039 17.8836 28.2614 17.8508C27.6626 17.8443 27.6626 17.0041 28.2614 17.0041C33.4534 17.0369 37.631 20.3778 37.6803 26.1406V26.1406ZM36.8842 32.5795V32.5926C36.1234 33.8397 34.7003 35.2181 33.235 34.7783L33.2209 34.7586C31.7345 34.3714 28.2332 32.6911 26.0211 31.0502C24.8799 30.21 23.8372 29.2189 23.0341 28.2672C22.3085 27.4205 21.5759 26.4163 20.8643 25.2086C19.3638 22.6816 19.0327 21.5527 19.0327 21.5527C18.5607 20.1875 20.033 18.8616 21.3786 18.1527H21.3927C22.0408 17.8377 22.6608 17.9427 23.0764 18.4087C23.0764 18.4087 23.95 19.3801 24.3233 19.8593C24.6756 20.3056 25.1476 21.021 25.3941 21.4214C25.8239 22.1368 25.5562 22.8654 25.1335 23.1673L24.2881 23.7974C23.8584 24.119 23.9147 24.7163 23.9147 24.7163C23.9147 24.7163 25.1687 29.1336 29.8535 30.2494C29.8535 30.2494 30.4946 30.3019 30.8398 29.9016L31.5161 29.1139C31.8401 28.7201 32.6221 28.4707 33.39 28.8711C34.4256 29.4159 35.743 30.2626 36.6165 31.0305C37.1096 31.4046 37.2224 31.9756 36.8842 32.5795Z" fill="#323232"/>
</svg>
