<svg width="384" height="449" viewBox="0 0 384 449" fill="none" xmlns="http://www.w3.org/2000/svg">
<path d="M376.6 396.5C387.91 410.08 386.084 430.25 372.506 441.56C366.522 446.544 359.256 448.982 352.036 448.982C342.864 448.982 333.766 445.06 327.446 437.462L192 274.1L56.6 436.6C50.272 444.194 41.18 448.12 32.01 448.12C24.791 448.12 17.53 445.682 11.54 440.698C-2.04 429.388 -3.87 409.218 7.446 395.638L150.346 224.138L7.422 53.5C-3.891 39.92 -2.063 19.75 11.52 8.44001C25.08 -2.89999 45.25 -1.07598 56.58 12.534L192 175L327.4 12.5C338.7 -1.07999 358.88 -2.91999 372.46 8.40601C386.04 19.716 387.87 39.886 376.554 53.466L233.654 224.966L376.6 396.5Z" fill="#66CAD4"/>
</svg>
